<?xml version="1.0" encoding="utf-8"?>
<!-- Generator: Adobe Illustrator 22.1.0, SVG Export Plug-In . SVG Version: 6.00 Build 0)  -->
<svg version="1.1" id="Ebene_1" xmlns="http://www.w3.org/2000/svg" xmlns:xlink="http://www.w3.org/1999/xlink" x="0px" y="0px"
	 viewBox="0 0 798 798" style="enable-background:new 0 0 798 798;" xml:space="preserve">
<g>
	<path d="M784.5343018,508.7468567c-8.0805664-10.9610596-20.5238647-17.2473755-34.1407471-17.2473755H620.5001221
		c0.1373901-1.3585205,0.2324829-2.729248,0.2324829-4.1237488c0-20.485199-14.9616699-37.5423584-34.5330811-40.8147583
		c-11.9094238-34.0961304-33.9604492-62.887207-62.1390991-83.3061523c0.9468384-1.0212708,1.7794189-2.1782532,2.4662476-3.4644165
		c12.9009399-24.1465454,19.720459-51.466156,19.720459-79.0075378c0-92.5605621-75.3030701-167.8653564-167.8653259-167.8653564
		c-63.458313,0-121.4775391,36.3124619-149.7852936,92.0541153c-17.1598053-7.8541718-35.8441162-11.9458771-54.9322205-11.9458771
		c-72.9295273,0-132.2630005,59.3334656-132.2630005,132.2630005c0,20.2700195,4.6793861,40.2817383,13.5960579,58.3866272
		c-9.0259857,20.9337769-13.5960579,43.170105-13.5960579,66.2225342c0,14.2102966,1.7853546,28.1235962,5.2393799,41.6254883
		c-13.2908592,0.2506714-25.3971691,6.4860535-33.3112488,17.2234497
		c-8.0789566,10.9610901-10.4009686,24.7072449-6.3719978,37.7131042l51.1723824,165.1902466
		C72.4627609,757.9158936,114.6348114,789,163.0697479,789h471.7225952c48.4365845,0,90.609436-31.0841064,104.9407959-77.3513794
		l51.1715698-165.1886597C794.9345093,533.4541016,792.6116333,519.7079468,784.5343018,508.7468567z M557.8652954,466.8922424
		c1.9614258,7.2068787,8.5045776,12.2073364,15.9713135,12.2073364h5.5151978c4.5634766,0,8.276123,3.7126465,8.276123,8.2761536
		c0,1.5085449-0.4224854,2.9103088-1.1353149,4.1237488H257.7168274c-0.7128296-1.2134399-1.1353455-2.6152039-1.1353455-4.1237488
		c0-4.5635071,3.712677-8.2761536,8.2761841-8.2761536h5.5135498c7.4684448,0,14.0115967-5.0004578,15.9713135-12.2073364
		c15.1437988-55.6605225,62.9120789-96.0133667,119.2363281-102.6856384
		c0.5048523,8.6882629,7.7101135,15.5790405,16.524231,15.5790405c8.8140564,0,16.0209351-6.8907776,16.5241394-15.5790405
		C494.954834,370.8788757,542.7214966,411.23172,557.8652954,466.8922424z M87.795784,374.8480225
		c-8.693306-15.0261841-13.2898483-32.1627502-13.2898483-49.5592651c0-54.6755981,44.4810333-99.1583557,99.1567383-99.1583557
		c19.1609497,0,37.7740326,5.4987183,53.8264771,15.9017944c4.2141418,2.7295685,9.4380646,3.4048309,14.2118225,1.820816
		c4.768692-1.5807648,8.5608521-5.2420959,10.3087311-9.9512939
		c19.5102844-52.5635223,70.2944336-87.8795624,126.3721008-87.8795624
		c74.3083496,0,134.7607117,60.4524536,134.7607117,134.7607117c0,22.117218-5.4688416,44.0424805-15.8157654,63.4069824
		c-0.4485474,0.8425903-0.8193054,1.7082825-1.1123047,2.5855103
		c-17.8665771-8.4483337-37.2857666-13.9155273-57.5574036-15.8571472V313.576355
		c0-9.1418762-7.4120789-16.5523376-16.5523376-16.5523376c-9.1401367,0-16.5523071,7.4104614-16.5523071,16.5523376v17.3418579
		c-67.2355347,6.4388733-125.208374,51.7028503-147.5423889,115.6427612
		c-19.5715179,3.2723999-34.5331726,20.3295593-34.5331726,40.8147583c0,1.3945007,0.0950775,2.7652283,0.2324677,4.1237488
		H81.0956497c-4.3456955-13.3600769-6.5897141-27.2884216-6.5897141-41.6015625
		c0-20.8410339,4.6478653-40.8428345,13.8129654-59.4460144C90.7619476,385.491272,90.566658,379.6350098,87.795784,374.8480225z
		 M760.8648071,537.1525269l-51.1715698,165.1902466c-10.2304077,33.0222168-40.3301392,55.2078247-74.9008789,55.2078247
		H163.0697479c-34.5699463,0-64.6688232-22.1856079-74.8984451-55.2078247L36.9981117,537.1525269
		c-1.0409851-3.3605957-0.4404793-6.9135132,1.6471519-9.7454834c2.0884361-2.8336182,5.3043404-4.4581299,8.8241348-4.4581299
		h702.9241333c3.5189819,0,6.7356567,1.6245117,8.8240967,4.4581299
		C761.3060913,530.2390137,761.9058228,533.7919312,760.8648071,537.1525269z"/>
	<path d="M124.1629028,346.6809998c9.1402435,0,16.5523224-7.4104614,16.5523224-16.5523376
		c0-18.2539062,14.8507233-33.1046448,33.1046448-33.1046448c9.1402588,0,16.5523224-7.4104614,16.5523224-16.5523071
		c0-9.1418762-7.4120636-16.5523376-16.5523224-16.5523376c-36.5077515,0-66.2092896,29.7014465-66.2092896,66.2092896
		C107.6105804,339.2705383,115.0227585,346.6809998,124.1629028,346.6809998z"/>
	<path d="M557.8337402,227.5042725c0,63.8887024,51.9776001,115.8662415,115.866272,115.8662415
		s115.866272-51.9775391,115.866272-115.8662415c0-63.8885956-51.9776611-115.8662643-115.866272-115.8662643
		S557.8337402,163.6156769,557.8337402,227.5042725z M673.7000122,144.7426453
		c45.6347656,0,82.7616577,37.1268616,82.7616577,82.7616272s-37.1268921,82.7615967-82.7616577,82.7615967
		s-82.7615967-37.1268311-82.7615967-82.7615967S628.0652466,144.7426453,673.7000122,144.7426453z"/>
	<path d="M640.5953979,244.0565948c9.1401367,0,16.5523071-7.4104614,16.5523071-16.5523224
		c0-9.1269226,7.425293-16.5523224,16.5523071-16.5523224c9.1401367,0,16.5523682-7.4104614,16.5523682-16.5523224
		c0-9.1418762-7.4122314-16.5523376-16.5523682-16.5523376c-27.3807983,0-49.6569214,22.2761383-49.6569214,49.6569824
		C624.0430908,236.6461334,631.4551392,244.0565948,640.5953979,244.0565948z"/>
	<path d="M549.6854248,122.3193283c31.9443359,0,57.9331055-25.9887848,57.9331055-57.933136
		S581.6297607,6.453064,549.6854248,6.453064s-57.933136,25.9887848-57.933136,57.9331284
		S517.7410889,122.3193283,549.6854248,122.3193283z M549.6854248,39.5577087
		c13.6904297,0,24.8284912,11.1380653,24.8284912,24.8284836s-11.1380615,24.8284836-24.8284912,24.8284836
		s-24.8284912-11.1380615-24.8284912-24.8284836S535.9949951,39.5577087,549.6854248,39.5577087z"/>
	
		<ellipse transform="matrix(0.9732491 -0.2297525 0.2297525 0.9732491 -93.5937805 95.0112076)" cx="361.209137" cy="449.4247742" rx="21.0841866" ry="21.0841293"/>
	
		<ellipse transform="matrix(0.7071068 -0.7071068 0.7071068 0.7071068 -190.4277649 439.116272)" cx="434.8463745" cy="449.4247742" rx="21.0841446" ry="21.0841198"/>
</g>
</svg>
