<?xml version="1.0" encoding="utf-8"?>
<!-- Generator: Adobe Illustrator 22.1.0, SVG Export Plug-In . SVG Version: 6.00 Build 0)  -->
<svg version="1.1" id="Ebene_1" xmlns="http://www.w3.org/2000/svg" xmlns:xlink="http://www.w3.org/1999/xlink" x="0px" y="0px"
	 viewBox="0 0 798 798" style="enable-background:new 0 0 798 798;" xml:space="preserve">
<path d="M781.1867065,96.6629639H16.8131695C7.527513,96.6629639,0,104.1904755,0,113.4761353v346.144104
	c0,0.7610168,0.0429284,1.5220032,0.1170779,2.2713013c0.035123,0.4136658,0.1131746,0.8195496,0.1756159,1.2214966
	c0.046831,0.3317261,0.081954,0.6595459,0.1521999,0.9873657c0.0975653,0.4878235,0.2224479,0.960022,0.3551352,1.4439697
	c0.0624413,0.2380371,0.1092723,0.4761047,0.1795192,0.7063599c0.1443952,0.4878235,0.3200111,0.9639282,0.4995304,1.432251
	c0.0858563,0.2224426,0.1561033,0.4487915,0.2458619,0.6595154c0.1795193,0.456604,0.3941615,0.8819885,0.6088037,1.3112793
	c0.1131747,0.2380676,0.2185445,0.4839172,0.3395238,0.7102661c0.2068367,0.3980713,0.4409924,0.7727051,0.6673417,1.1512756
	c0.1522009,0.2575684,0.3083041,0.526825,0.4683099,0.7727051c0.2302525,0.3434143,0.4761145,0.6634216,0.7141726,0.9951477
	c0.2029343,0.2731934,0.3980627,0.5463562,0.6088028,0.8078308c0.245862,0.3083191,0.5034328,0.5853882,0.7649059,0.874176
	c0.1951284,0.2185669,0.3707452,0.4449158,0.5814843,0.6595459l230.1898651,237.8623352
	c0.042923,0.046814,0.0975647,0.0858765,0.1404877,0.1248779c0.3161163,0.3278198,0.6478424,0.6244507,0.9834595,0.928833
	c0.2263489,0.2029419,0.4448853,0.4214478,0.6790466,0.6088257c0.394165,0.3355713,0.8117371,0.6400146,1.2371216,0.944397
	c0.1834259,0.1365967,0.3629303,0.2849121,0.5502625,0.4136963C243.9503784,719.0287476,248.4071198,720.5,253.2111969,720.5
	h291.5775146c4.8040771,0,9.2608032-1.4712524,12.9526367-3.9923096c0.1873169-0.1287842,0.3668213-0.2770996,0.550293-0.4136963
	c0.425354-0.3043823,0.8429565-0.6088257,1.2371216-0.944397c0.2341309-0.1873779,0.4526978-0.4058838,0.6790161-0.6088257
	c0.3356323-0.3043823,0.6673584-0.6010132,0.9834595-0.928833c0.0429077-0.0390015,0.0975342-0.078064,0.1405029-0.1248779
	l230.1898804-237.8623352c0.2067871-0.2146301,0.3863525-0.440979,0.5814819-0.6595459
	c0.2575684-0.2887878,0.519043-0.5658569,0.7648926-0.874176c0.2146606-0.2614746,0.4058838-0.5385437,0.6088257-0.8078308
	c0.2380371-0.3317261,0.4838867-0.6517334,0.7102661-0.9951477c0.1638794-0.2458801,0.3161011-0.5151367,0.472168-0.7727051
	c0.2302856-0.3746643,0.4605103-0.7532043,0.6673584-1.1512756c0.1209717-0.2263489,0.2224731-0.4721985,0.3395386-0.7102661
	c0.2145996-0.4292908,0.4214478-0.8546753,0.6087646-1.3112793c0.0897827-0.2107239,0.1600342-0.4370728,0.2459106-0.6595154
	c0.1755981-0.4683228,0.3551025-0.9444275,0.4995117-1.432251c0.0741577-0.2302551,0.1209717-0.4683228,0.1795044-0.7063599
	c0.1287842-0.4839478,0.2614746-0.9561462,0.3551636-1.4439697c0.0663452-0.3278198,0.1053467-0.6556396,0.1521606-0.9873657
	c0.0585327-0.401947,0.1405029-0.8078308,0.1756592-1.2214966c0.0741577-0.7571106,0.1170654-1.5102844,0.1170654-2.2713013
	v-346.144104C797.9998779,104.1904755,790.4723511,96.6629639,781.1867065,96.6629639z M520.8274536,311.5039673
	c-12.7143555,0-23.0213623-10.3069763-23.0213623-23.0213318v-15.3410339c0-12.714325,10.3070068-23.0213318,23.0213623-23.0213318
	h23.0134888v61.3836975H520.8274536z M589.8757935,250.1202698h162.0775146v61.3836975H589.8757935V250.1202698z
	 M46.0387535,142.6939087h705.9145508v61.39151h-231.133667c-38.1387024,0-69.0562134,30.917511-69.0562134,69.0561829v15.3410339
	c0,38.1408386,30.919281,69.0600891,69.0601196,69.0600891h231.1297607v79.0600891H636.8623047
	c-63.5673828,0-115.098877,51.5314941-115.098877,115.0988464v122.7634888H276.2247314V551.6938477
	c0-63.5630188-51.5280151-115.0910339-115.0910492-115.0910339H46.0387535v-79.0600891h221.1336975
	c38.1365051,0,69.0522766-30.915741,69.0522766-69.0522766v-15.3488464c0-38.1386719-30.917511-69.0561829-69.0561829-69.0561829
	H46.0387535V142.6939087z M720.6702271,482.641571L567.8060913,640.5985718v-88.9047241
	c0-38.1365356,30.9157715-69.0522766,69.0523071-69.0522766H720.6702271z M230.1898651,640.5985718L77.3257523,482.641571h83.804039
	c38.1408234,0,69.0600739,30.919281,69.0600739,69.0600891V640.5985718z M46.0387535,250.1202698h152.0774994v61.3836975H46.0387535
	V250.1202698z M267.1685486,250.1202698c12.714325,0,23.0213318,10.3070068,23.0213318,23.0213318v15.3410339
	c0,12.7143555-10.3070068,23.0213318-23.0213318,23.0213318h-23.0213318v-61.3836975H267.1685486z"/>
</svg>
