<?xml version="1.0" encoding="utf-8"?>
<!-- Generator: Adobe Illustrator 22.1.0, SVG Export Plug-In . SVG Version: 6.00 Build 0)  -->
<svg version="1.1" id="Ebene_1" xmlns="http://www.w3.org/2000/svg" xmlns:xlink="http://www.w3.org/1999/xlink" x="0px" y="0px"
	 viewBox="0 0 798 798" style="enable-background:new 0 0 798 798;" xml:space="preserve">
<path d="M592.7255859,256.5131836v-27.5091553c0-41.8681641-34.0625-75.9301758-75.9306641-75.9301758h-28.0830078
	c-2.2753906,0-4.1259766-1.8510742-4.1259766-4.1259766V96.1207275c0-46.3857422-37.7373047-84.1230469-84.1230469-84.1230469
	s-84.1235352,37.7373047-84.1235352,84.1230469v52.8271484c0,2.2749023-1.8510742,4.1259766-4.1259766,4.1259766h-28.0830078
	c-41.8676758,0-75.9296875,34.0620117-75.9296875,75.9301758v27.506897C181.3197021,266.0265503,162,291.6682739,162,321.765625
	v7.703125c0,32.875,23.0546875,60.4609375,53.84375,67.4765625V721.765625C215.84375,759.9453125,246.8984375,791,285.0742188,791
	H515.84375c38.171875,0,69.2304688-31.0546875,69.2304688-69.234375V396.9453125
	c30.796875-7.015625,53.8476562-34.6015625,53.8476562-67.4765625v-7.703125
	C638.921875,291.6707153,619.6086426,266.0307007,592.7255859,256.5131836z M284.1303711,199.0738525h28.0830078
	c27.6396484,0,50.1259766-22.4863281,50.1259766-50.1259766V96.1207275c0-21.0209961,17.1020508-38.1230469,38.1235352-38.1230469
	s38.1230469,17.1020508,38.1230469,38.1230469v52.8271484c0,27.6396484,22.4863281,50.1259766,50.1259766,50.1259766h28.0830078
	c16.5039062,0,29.9306641,13.4267578,29.9306641,29.9301758V254.28125H254.2006836v-25.2772217
	C254.2006836,212.5006104,267.6269531,199.0738525,284.1303711,199.0738525z M538.921875,721.765625
	c0,12.7304688-10.3515625,23.0820312-23.078125,23.0820312H285.0742188C272.3515625,744.8476562,262,734.4960938,262,721.765625
	v-15.3789062h61.5351562c12.7460938,0,23.078125-10.3320312,23.078125-23.078125
	c0-12.7421875-10.3320312-23.0742188-23.078125-23.0742188H262V591h61.5351562
	c12.7460938,0,23.078125-10.3320312,23.078125-23.078125c0-12.7421875-10.3320312-23.0742188-23.078125-23.0742188H262v-61.5390625
	h61.5351562c12.7460938,0,23.078125-10.3320312,23.078125-23.0742188c0-12.7460938-10.3320312-23.0820312-23.078125-23.0820312H262
	v-38.4609375h276.921875V721.765625z M592.7695312,329.46875c0,12.7109375-10.3515625,23.0625-23.0820312,23.0625H231.2304688
	c-12.7226562,0-23.0742188-10.3515625-23.0742188-23.0625v-7.703125c0-12.7226562,10.3515625-23.0742188,23.0742188-23.0742188
	H569.6875c12.7304688,0,23.0820312,10.3515625,23.0820312,23.0742188V329.46875z"/>
</svg>
