<?xml version="1.0" encoding="utf-8"?>
<!-- Generator: Adobe Illustrator 22.1.0, SVG Export Plug-In . SVG Version: 6.00 Build 0)  -->
<svg version="1.1" id="Ebene_1" xmlns="http://www.w3.org/2000/svg" xmlns:xlink="http://www.w3.org/1999/xlink" x="0px" y="0px"
	 viewBox="0 0 798 798" style="enable-background:new 0 0 798 798;" xml:space="preserve">
<g>
	<path d="M395.9116821,526.0735474c-24.9657898,0-24.9657898,38.7078247,0,38.7078247
		C420.8857422,564.7813721,420.8857422,526.0735474,395.9116821,526.0735474z"/>
</g>
<g>
	<path d="M66.4177933,117.9052658c-5.1400909,5.6470413-6.4768333,13.8289566-3.3770294,20.8479233
		c3.0852814,7.0045013,10.0297394,11.5361938,17.690239,11.5361938h82.2536163
		c10.6836395,0,19.3538971-8.6681976,19.3538971-19.3539124s-8.6681671-19.3539047-19.3538971-19.3539047h-17.6157227H124.529213
		l10.4208755-11.4265213l42.3601074-46.5089912c5.1545563-5.6449776,6.4913025-13.8289528,3.3915558-20.8458595
		c-3.0997314-7.0065594-10.0318146-11.5362015-17.7046967-11.5362015H80.7434464
		c-10.6712723,0-19.3539085,8.6681843-19.3539085,19.3539162s8.6806145,19.3539124,19.3539085,19.3539124h17.6281586h20.8272476
		l-10.4188004,11.4285927L66.4177933,117.9052658z"/>
	<path d="M28.7586403,261.6742554c3.0997429,7.0065613,10.0421753,11.5341187,17.7150574,11.5341187h47.591198
		c10.68573,0,19.3539124-8.6681824,19.3539124-19.3538971c0-10.6795044-8.6660919-19.3539124-19.3539124-19.3539124h-3.8178101
		l18.1185837-19.9084778c5.1524658-5.6636047,6.5037384-13.8413696,3.4039307-20.8479156
		s-10.0442581-11.5361938-17.7047043-11.5361938h-47.591198c-10.6836433,0-19.3539047,8.6681824-19.3539047,19.3538971
		c0,10.6795349,8.6681747,19.3539124,19.3539047,19.3539124h3.807457L32.160553,240.8242645
		C27.0183754,246.4898834,25.6691914,254.6676788,28.7586403,261.6742554z"/>
</g>
<path d="M293.8491516,499.8921204c-41.3258667,0-74.9475098-33.6216431-74.9475098-74.9464722
	c0-10.8576355,8.8014832-19.6581116,19.6580963-19.6581116s19.6580963,8.8004761,19.6580963,19.6581116
	c0,19.6459656,15.984314,35.6302795,35.6313171,35.6302795c19.6469727,0,35.6302795-15.984314,35.6302795-35.6302795
	c0-10.8576355,8.8014832-19.6581116,19.6581116-19.6581116c10.8565979,0,19.6580811,8.8004761,19.6580811,19.6581116
	C368.7956238,466.2704773,335.1749878,499.8921204,293.8491516,499.8921204z"/>
<path d="M498.8587646,499.8921204c-41.3248596,0-74.9465027-33.6216431-74.9465027-74.9464722
	c0-10.8576355,8.8004761-19.6581116,19.6580811-19.6581116c10.8576355,0,19.6581116,8.8004761,19.6581116,19.6581116
	c0,19.6459656,15.984314,35.6302795,35.6303101,35.6302795c19.6479492,0,35.6323242-15.984314,35.6323242-35.6302795
	c0-10.8576355,8.8004761-19.6581116,19.6580811-19.6581116s19.6580811,8.8004761,19.6580811,19.6581116
	C573.807251,466.2704773,540.1856079,499.8921204,498.8587646,499.8921204z"/>
<path d="M399.1567688,738c-68.1061707,0-132.7547913-21.6445312-186.9570312-62.5914917
	c-48.2298279-36.4345703-85.2857819-87.0024414-105.5389938-143.6184692
	C49.1949654,530.8887939,2.7211914,483.8613281,2.7211914,426.1843567c0-57.9952087,46.986042-105.2237549,104.8923492-105.6147766
	c20.605835-55.9582825,57.7153473-105.8703918,105.6986389-141.7765198
	c53.9789276-40.3942871,118.2436066-61.7447739,185.8445892-61.7447739c67.6019897,0,131.8646545,21.3504868,185.8456116,61.7447739
	c47.9832764,35.9061279,85.0927734,85.8182373,105.6986084,141.7765198
	c57.9052734,0.3910217,104.892334,47.6195679,104.892334,105.6147766c0,57.6769714-46.4737549,104.7044373-103.9385376,105.6056824
	c-20.2542114,56.6160278-57.3111572,107.1838989-105.5410156,143.6184692C531.9125366,716.3554688,467.2639465,738,399.1567688,738z
	 M134.5615845,489.4103699l4.8639984,16.1985168c16.4096985,54.6660156,50.671936,103.8273926,96.4727936,138.4291382
	c47.3215027,35.7495117,103.7758789,54.645813,163.2583923,54.645813s115.9368591-18.8963013,163.2593689-54.645813
	c45.8009033-34.6017456,80.0631104-83.7631226,96.4738159-138.4291382l4.8619995-16.1985168l16.7441406,2.390564
	c3.1968384,0.4546814,6.3856201,0.6870728,9.4794312,0.6870728c36.5598755,0,66.3016357-29.7437744,66.3016357-66.3036499
	c0-36.5578308-29.7417603-66.3005981-66.3016357-66.3005981c-3.3706665,0-6.7594604,0.2556458-10.0715332,0.7588196
	l-16.7158203,2.5411072l-5.0135498-16.1490173c-16.7845459-54.0759277-51.1357422-102.6462555-96.7284546-136.7630005
	c-47.128479-35.2665558-103.2474365-53.907196-162.2893982-53.907196c-59.0429993,0-115.1619263,18.6406403-162.2894287,53.906189
	c-45.5917053,34.1177521-79.9438629,82.6880798-96.727417,136.7640076l-5.0125275,16.1490173l-16.7168579-2.5411072
	c-3.3120499-0.5031738-6.7008896-0.7588196-10.0715408-0.7588196c-36.5588455,0-66.3016129,29.7427673-66.3016129,66.3005981
	c0,36.5598755,29.7427673,66.3036499,66.3016129,66.3036499c3.093811,0,6.2835999-0.2323914,9.479454-0.6870728
	L134.5615845,489.4103699z"/>
<path d="M368.3288269,306.4878235c-41.2045898,0.0020142-82.326355-20.2259216-93.5517578-65.1790771
	c-7.1565857-28.6555939-2.7714844-54.6063843,12.681366-75.0485382
	c34.8179626-46.060524,114.6880493-49.095726,118.0708313-49.2018204
	c10.9041138-0.3566666,19.9268799,8.1760559,20.2683716,19.0286331
	c0.3415222,10.8414459-8.1618958,19.9086609-18.9972839,20.2663422l0,0
	c-17.8939819,0.6203766-68.5861206,7.8779907-88.0188904,33.6691284c-8.2326355,10.9253235-10.149353,24.5857697-5.86026,41.7603302
	c4.806427,19.2458496,28.7677612,43.9498138,75.0990601,33.1356354
	c12.7803955-2.9846802,36.0597229-12.7389526,32.6769409-28.2948761c-1.09729-5.0448608-3.3565063-7.9042511-7.7981567-9.8704681
	c-12.5116272-5.542984-34.9200134-0.7507172-42.4645691,3.6020203c-9.4016418,5.4278107-21.4252625,2.2006378-26.8500366-7.2060699
	c-5.4247742-9.4046936-2.1986084-21.4252625,7.2060852-26.8500366c15.8368225-9.1349182,51.5863342-17.2028503,78.0241394-5.4975128
	c16.0368652,7.0999908,26.5145874,20.0561829,30.3015137,37.4691925
	c7.3596497,33.8560638-18.1990967,64.6698456-62.1560059,74.9333649
	C387.6716919,305.3733826,377.9942017,306.4868164,368.3288269,306.4878235z"/>
</svg>
